<svg width="720" height="720" viewBox="0 0 720 720" fill="none" xmlns="http://www.w3.org/2000/svg">
<path fill-rule="evenodd" clip-rule="evenodd" d="M637.164 475.195C652.24 511.593 660 550.603 660 590L60 590C60 510.435 91.607 434.129 147.868 377.868C154.133 371.603 160.647 365.644 167.386 359.999C160.632 354.343 154.118 348.383 147.868 342.132C120.01 314.274 97.9125 281.203 82.8361 244.805C67.7597 208.407 60 169.397 60 130L360 130V280L360 290L360.328 290C360.111 286.695 360 283.36 360 280C360 197.157 427.157 130 510 130C592.843 130 660 197.157 660 280C660 331.265 634.283 376.523 595.046 403.577C612.305 425.337 626.493 449.433 637.164 475.195ZM335 405C302.17 405 269.661 398.534 239.329 385.97C208.998 373.406 181.438 354.991 158.223 331.777C135.009 308.562 116.594 281.002 104.03 250.671C91.4664 220.339 85 187.83 85 155L335 155V405ZM480.671 334.03C450.339 321.466 417.83 315 385 315V565L635 565C635 532.17 628.534 499.661 615.97 469.329C603.406 438.998 584.991 411.438 561.777 388.223C538.562 365.009 511.002 346.594 480.671 334.03Z" fill="black"/>
<path d="M660 590L660 615L685 615V590H660ZM637.164 475.195L660.261 465.628L660.261 465.628L637.164 475.195ZM60 590L35 590L35 615L60 615L60 590ZM147.868 377.868L130.19 360.19L130.19 360.19L147.868 377.868ZM167.386 359.999L183.438 379.166L206.323 359.999L183.437 340.833L167.386 359.999ZM82.8361 244.805L105.933 235.238L82.8361 244.805ZM60 130L60 105L35 105L35 130L60 130ZM360 130H385V105L360 105L360 130ZM360 290L335 290L334.999 314.986L359.986 315L360 290ZM360.328 290L360.314 315L387.029 315.015L385.274 288.358L360.328 290ZM595.046 403.577L580.855 382.996L558.848 398.169L575.459 419.112L595.046 403.577ZM239.329 385.97L248.896 362.873L248.896 362.873L239.329 385.97ZM335 405V430H360V405H335ZM104.03 250.671L127.127 241.104L127.127 241.104L104.03 250.671ZM85 155L85 130L60 130L60 155L85 155ZM335 155H360V130L335 130L335 155ZM385 315V290H360V315H385ZM385 565H360V590L385 590L385 565ZM635 565L635 590L660 590V565H635ZM615.97 469.329L639.067 459.762L639.067 459.762L615.97 469.329ZM561.777 388.223L579.454 370.546L579.454 370.546L561.777 388.223ZM685 590C685 547.32 676.594 505.059 660.261 465.628L614.067 484.762C627.887 518.127 635 553.887 635 590H685ZM60 615L660 615L660 565L60 565L60 615ZM130.19 360.19C69.241 421.14 35 503.805 35 590L85 590C85 517.065 113.973 447.118 165.546 395.546L130.19 360.19ZM151.334 340.833C144.033 346.948 136.977 353.404 130.19 360.19L165.546 395.546C171.289 389.802 177.26 384.339 183.438 379.166L151.334 340.833ZM130.19 359.81C136.962 366.581 144.017 373.038 151.335 379.166L183.437 340.833C177.246 335.648 171.275 330.184 165.546 324.454L130.19 359.81ZM59.7391 254.372C76.0719 293.803 100.011 329.631 130.19 359.81L165.546 324.454C140.01 298.918 119.753 268.602 105.933 235.238L59.7391 254.372ZM35 130C35 172.68 43.4064 214.941 59.7391 254.372L105.933 235.238C92.1131 201.873 85 166.114 85 130L35 130ZM360 105L60 105L60 155L360 155L360 105ZM385 280V130H335V280H385ZM385 290L385 280L335 280L335 290L385 290ZM360.342 265L360.014 265L359.986 315L360.314 315L360.342 265ZM335 280C335 283.909 335.129 287.791 335.382 291.642L385.274 288.358C385.092 285.599 385 282.812 385 280H335ZM510 105C413.35 105 335 183.35 335 280H385C385 210.964 440.964 155 510 155V105ZM685 280C685 183.35 606.65 105 510 105V155C579.036 155 635 210.964 635 280H685ZM609.237 424.159C654.952 392.638 685 339.831 685 280H635C635 322.699 613.614 360.408 580.855 382.996L609.237 424.159ZM660.261 465.628C648.701 437.719 633.33 411.615 614.633 388.042L575.459 419.112C591.279 439.059 604.285 461.147 614.067 484.762L660.261 465.628ZM229.762 409.067C263.127 422.887 298.886 430 335 430V380C305.453 380 276.194 374.18 248.896 362.873L229.762 409.067ZM140.546 349.454C166.082 374.99 196.397 395.247 229.762 409.067L248.896 362.873C221.598 351.566 196.794 334.992 175.901 314.099L140.546 349.454ZM80.9331 260.238C94.7532 293.602 115.01 323.918 140.546 349.454L175.901 314.099C155.008 293.206 138.434 268.402 127.127 241.104L80.9331 260.238ZM60 155C60 191.114 67.1131 226.873 80.9331 260.238L127.127 241.104C115.82 213.806 110 184.547 110 155L60 155ZM335 130L85 130L85 180L335 180L335 130ZM360 405V155H310V405H360ZM385 340C414.547 340 443.806 345.82 471.104 357.127L490.238 310.933C456.873 297.113 421.114 290 385 290V340ZM410 565V315H360V565H410ZM635 540L385 540L385 590L635 590L635 540ZM592.873 478.896C604.18 506.194 610 535.453 610 565H660C660 528.886 652.887 493.127 639.067 459.762L592.873 478.896ZM544.099 405.901C564.992 426.794 581.566 451.598 592.873 478.896L639.067 459.762C625.247 426.398 604.99 396.082 579.454 370.546L544.099 405.901ZM471.104 357.127C498.402 368.434 523.206 385.008 544.099 405.901L579.454 370.546C553.918 345.01 523.602 324.753 490.238 310.933L471.104 357.127Z" fill="black"/>
</svg>
