<svg width="720" height="720" viewBox="0 0 720 720" fill="none" xmlns="http://www.w3.org/2000/svg">
<path d="M60 590C60 510.435 91.607 434.129 147.868 377.868C204.129 321.607 280.435 290 360 290L360 590L60 590Z" fill="black" stroke="black" stroke-width="50"/>
<circle cx="510" cy="280" r="150" fill="black" stroke="black" stroke-width="50"/>
<path d="M360 430C320.603 430 281.593 422.24 245.195 407.164C208.797 392.087 175.726 369.99 147.868 342.132C120.01 314.274 97.9125 281.203 82.8361 244.805C67.7597 208.407 60 169.397 60 130L360 130V430Z" fill="white" stroke="black" stroke-width="50"/>
<path d="M360 290C399.397 290 438.407 297.76 474.805 312.836C511.203 327.913 544.274 350.01 572.132 377.868C599.99 405.726 622.087 438.797 637.164 475.195C652.24 511.593 660 550.603 660 590L360 590L360 290Z" fill="white" stroke="black" stroke-width="50"/>
</svg>
